<?xml version="1.0" encoding="utf-8"?>
<!-- Generator: Adobe Illustrator 21.1.0, SVG Export Plug-In . SVG Version: 6.00 Build 0)  -->
<svg version="1.1" id="Слой_2" xmlns="http://www.w3.org/2000/svg" xmlns:xlink="http://www.w3.org/1999/xlink" x="0px" y="0px"
	 viewBox="0 0 40 40" style="enable-background:new 0 0 40 40;" xml:space="preserve">
<style type="text/css">
	.st0{fill:none;stroke:#000000;stroke-miterlimit:10;}
</style>
<g id="main_1_">
	<g id="_x32__3_">
		<g>
			<path class="st0" d="M22.3,8.6v9.1h9.1C31.4,12.6,27.3,8.6,22.3,8.6z"/>
			<path class="st0" d="M20,10.9c-5,0-9.1,4.1-9.1,9.1s4.1,9.1,9.1,9.1s9.1-4.1,9.1-9.1H20V10.9z"/>
			<path class="st0" d="M20,13.3c-3.7,0-6.7,3-6.7,6.8c0,3.7,3,6.7,6.8,6.7s6.7-3,6.7-6.8H20V13.3z"/>
			<path class="st0" d="M20,15.9c-2.3,0-4.1,1.9-4.1,4.2s1.9,4.1,4.2,4.1s4.1-1.9,4.1-4.2H20V15.9z"/>
			<path class="st0" d="M20,18.4c-0.9,0-1.6,0.7-1.6,1.6s0.7,1.6,1.6,1.6s1.6-0.7,1.6-1.6H20V18.4z"/>
		</g>
		
			<ellipse transform="matrix(1 -3.744542e-03 3.744542e-03 1 -7.475115e-02 7.503158e-02)" class="st0" cx="20" cy="20" rx="18.9" ry="18.9"/>
	</g>
</g>
</svg>
