<?xml version="1.0" encoding="utf-8"?>
<!-- Generator: Adobe Illustrator 21.1.0, SVG Export Plug-In . SVG Version: 6.00 Build 0)  -->
<svg version="1.1" id="Слой_2" xmlns="http://www.w3.org/2000/svg" xmlns:xlink="http://www.w3.org/1999/xlink" x="0px" y="0px"
	 viewBox="0 0 40 40" style="enable-background:new 0 0 40 40;" xml:space="preserve">
<style type="text/css">
	.st0{fill:none;stroke:#000000;stroke-miterlimit:10;}
</style>
<g id="main_1_">
	<g id="_x33__3_">
		<g>
			<g>
				
					<ellipse transform="matrix(1 -3.744542e-03 3.744542e-03 1 -4.853880e-02 7.498239e-02)" class="st0" cx="20" cy="13" rx="9.3" ry="4.7"/>
				<path class="st0" d="M29.3,15.3c0,2.6-4.2,4.7-9.3,4.7s-9.3-2.1-9.3-4.6"/>
				<path class="st0" d="M29.3,17.6c0,2.6-4.2,4.7-9.3,4.7s-9.3-2.1-9.3-4.6"/>
				<path class="st0" d="M29.3,20c0,2.6-4.2,4.7-9.3,4.7s-9.3-2.1-9.3-4.6"/>
				<path class="st0" d="M29.3,22.3c0,2.6-4.2,4.7-9.3,4.7s-9.3-2.1-9.3-4.6"/>
				<path class="st0" d="M29.3,24.6c0,2.6-4.2,4.7-9.3,4.7s-9.3-2.1-9.3-4.6"/>
				<path class="st0" d="M29.3,27c0,2.6-4.2,4.7-9.3,4.7s-9.3-2.1-9.3-4.6"/>
			</g>
			<g>
				<g>
					<g>
						<path d="M17.4,13c0,0.9,0.8,1.8,2.7,1.8c1.3,0,2.2-0.4,2.6-0.6c0.2-0.1,0.6,0,0.4,0.1c-0.4,0.4-1.6,0.8-3.1,0.8
							c-2.6,0-4-1-4-2.1c0-0.8,1-1.9,3.9-2c1.5,0,2.3,0.3,2.6,0.4c0.1,0,0.1,0.1,0.1,0.1c0,0.2,0,0.4,0.1,0.5c0,0.1-0.4,0.2-0.6,0
							s-0.5-0.8-2.2-0.8C17.8,11.3,17.4,12.5,17.4,13z"/>
						<path d="M21.7,9.6c-0.7,0-2.2,0.3-2.2,1.6c0,0.5,0,1.1,0,1.9c0,0.8,0.1,1.2,0.1,1.9c0,1.1-0.8,1.5-1.6,1.3
							c0.4-0.1,0.4-0.6-0.3-0.6c-0.5,0-0.6,0.2-0.6,0.3c0,0.3,0.6,0.6,1.4,0.6c0.7,0,2.2-0.3,2.2-1.6c0-0.5,0-0.9,0-1.9
							c0-0.9-0.1-1.2-0.1-1.9c0-1.1,0.8-1.5,1.6-1.3c-0.4,0.1-0.4,0.6,0.3,0.6c0.5,0,0.6-0.2,0.6-0.3C23,9.9,22.5,9.6,21.7,9.6z"/>
					</g>
				</g>
			</g>
		</g>
		
			<ellipse transform="matrix(1 -3.744542e-03 3.744542e-03 1 -7.475115e-02 7.503158e-02)" class="st0" cx="20" cy="20" rx="18.9" ry="18.9"/>
	</g>
</g>
</svg>
